<?xml version="1.0" standalone="no"?>
<!DOCTYPE svg PUBLIC "-//W3C//DTD SVG 20010904//EN"
 "http://www.w3.org/TR/2001/REC-SVG-20010904/DTD/svg10.dtd">
<svg version="1.0" xmlns="http://www.w3.org/2000/svg"
 width="400.000000pt" height="400.000000pt" viewBox="0 0 400.000000 400.000000"
 preserveAspectRatio="xMidYMid meet">

<g transform="translate(0.000000,400.000000) scale(0.100000,-0.100000)"
fill="#000000" stroke="none">
<path d="M2000 3890 c0 -13 7 -20 20 -20 11 0 20 -7 20 -15 0 -8 -9 -15 -20
-15 -11 0 -20 7 -20 15 0 8 -9 15 -20 15 -16 0 -20 -7 -20 -31 0 -22 5 -32 20
-36 18 -5 20 -14 20 -84 0 -51 -4 -81 -13 -86 -6 -4 -18 -20 -26 -35 -14 -28
-31 -37 -31 -18 0 6 -4 10 -8 10 -5 0 -7 -13 -4 -30 4 -25 1 -30 -17 -30 -12
0 -21 6 -21 15 0 12 -18 15 -105 15 -87 0 -105 -3 -105 -15 0 -8 -4 -15 -10
-15 -5 0 -10 6 -10 14 0 7 -9 16 -20 19 -11 3 -20 12 -20 21 0 9 -8 16 -20 16
-13 0 -20 7 -20 20 0 13 -7 20 -20 20 -17 0 -20 7 -20 39 0 30 4 40 20 44 15
4 20 14 20 36 0 24 -4 31 -20 31 -11 0 -20 -7 -20 -15 0 -8 -9 -15 -20 -15
-11 0 -20 7 -20 15 0 8 9 15 20 15 13 0 20 7 20 20 0 11 -6 20 -14 20 -7 0
-16 -9 -19 -20 -3 -11 -12 -20 -21 -20 -26 0 -22 -66 4 -73 28 -7 28 -67 1
-74 -12 -3 -21 -17 -25 -38 -4 -21 -14 -35 -26 -38 -16 -4 -20 -14 -20 -46 0
-30 -4 -41 -15 -41 -8 0 -15 -7 -15 -15 0 -11 -11 -15 -40 -15 -33 0 -40 4
-40 19 0 10 -9 21 -20 24 -11 3 -20 12 -20 21 0 9 -8 16 -20 16 -23 0 -28 34
-7 44 10 5 10 7 0 12 -18 8 -16 53 2 60 21 8 21 74 0 74 -8 0 -15 -9 -15 -20
0 -13 -7 -20 -20 -20 -11 0 -20 6 -20 14 0 7 9 16 20 19 11 3 20 12 20 21 0 9
-8 16 -20 16 -11 0 -20 -7 -20 -15 0 -8 -6 -15 -14 -15 -8 0 -17 -4 -21 -10
-9 -15 6 -60 21 -60 15 0 17 -12 16 -100 0 -73 1 -70 -22 -70 -17 0 -20 -7
-20 -51 0 -42 3 -52 20 -56 15 -4 20 -14 20 -40 0 -26 5 -36 20 -40 18 -5 20
-14 20 -80 0 -66 -2 -75 -20 -80 -16 -4 -20 -14 -20 -44 0 -32 -3 -39 -20 -39
-18 0 -20 -7 -20 -55 0 -44 -4 -56 -20 -65 -20 -11 -21 -20 -20 -243 1 -356 2
-337 -15 -337 -11 0 -15 -11 -15 -36 0 -27 -5 -37 -20 -41 -19 -5 -20 -14 -20
-143 0 -146 -4 -170 -26 -170 -8 0 -14 -7 -14 -16 0 -9 -9 -18 -20 -21 -11 -3
-20 -14 -20 -24 0 -12 -7 -19 -20 -19 -13 0 -20 -7 -20 -20 0 -13 -7 -20 -20
-20 -19 0 -20 -7 -20 -95 0 -88 1 -95 20 -95 17 0 20 -7 20 -40 0 -33 3 -40
20 -40 11 0 20 -6 20 -14 0 -8 9 -18 20 -21 29 -9 29 -75 0 -82 -11 -3 -20
-14 -20 -24 0 -12 -7 -19 -20 -19 -12 0 -20 -7 -20 -16 0 -9 -9 -18 -20 -21
-11 -3 -20 -14 -20 -24 0 -12 -7 -19 -20 -19 -16 0 -20 -7 -20 -34 0 -26 -5
-36 -20 -41 -18 -6 -20 -15 -20 -116 0 -102 1 -109 20 -109 19 0 20 -7 20
-100 0 -105 0 -104 48 -100 16 1 22 -4 22 -20 0 -11 8 -24 18 -27 9 -4 21 -12
25 -20 4 -7 23 -13 41 -13 25 0 35 -5 39 -20 5 -18 13 -20 114 -20 135 0 150
4 158 41 4 15 15 31 25 34 10 3 20 15 23 25 3 11 12 20 21 20 12 0 16 10 16
35 0 24 5 35 15 35 8 0 15 9 15 19 0 11 9 23 20 26 18 6 20 15 20 81 0 67 -2
74 -20 74 -13 0 -20 7 -20 20 0 11 -6 20 -14 20 -8 0 -18 9 -21 20 -3 11 -15
20 -26 20 -12 0 -19 7 -19 20 0 13 -7 20 -20 20 -13 0 -20 7 -20 20 0 11 -7
20 -15 20 -11 0 -15 13 -15 54 0 45 3 54 20 59 11 3 20 12 20 20 0 16 76 27
190 27 51 0 69 4 74 15 4 11 21 15 67 15 52 0 62 3 66 19 3 11 11 22 19 25 8
3 14 12 14 21 0 8 9 15 20 15 13 0 20 7 20 20 0 11 5 20 10 20 14 0 30 -44 30
-81 0 -19 5 -29 15 -29 10 0 15 11 15 35 0 28 4 35 20 35 16 0 19 8 22 57 2
46 7 59 21 61 12 2 17 -3 17 -17 0 -20 5 -21 160 -21 153 0 160 1 160 20 0 11
7 20 15 20 12 0 15 -13 15 -60 0 -53 2 -60 20 -60 11 0 20 -7 20 -15 0 -8 9
-15 20 -15 11 0 20 7 20 15 0 8 -7 15 -15 15 -8 0 -15 6 -15 14 0 8 7 16 15
20 10 4 15 -1 15 -14 0 -17 7 -20 40 -20 36 0 40 -2 40 -25 0 -15 6 -25 14
-25 8 0 16 -7 20 -15 4 -12 26 -15 106 -15 82 0 100 -3 100 -15 0 -17 27 -20
50 -5 9 5 17 5 21 -1 3 -6 17 -4 35 6 41 21 71 19 77 -5 4 -16 14 -20 46 -20
30 0 41 -4 41 -15 0 -8 9 -15 20 -15 13 0 20 -7 20 -20 0 -12 7 -20 16 -20 9
0 18 -9 21 -20 3 -11 12 -20 20 -20 8 0 17 -9 20 -20 9 -35 33 -24 33 16 0 27
5 37 20 41 11 3 20 12 20 20 0 8 9 17 20 20 11 3 20 14 20 24 0 12 7 19 20 19
19 0 20 7 20 129 0 120 -1 129 -20 134 -11 3 -20 12 -20 20 0 8 -9 17 -20 20
-11 3 -20 12 -20 20 0 8 -9 17 -20 20 -11 3 -20 12 -20 20 0 8 -9 17 -20 20
-11 3 -20 13 -20 22 0 9 9 19 20 22 19 5 20 14 20 134 0 111 -2 129 -16 129
-9 0 -18 9 -21 20 -3 11 -12 20 -20 20 -8 0 -17 9 -20 20 -3 11 -11 20 -18 20
-22 0 -25 54 -25 420 0 349 0 358 -20 363 -15 4 -20 14 -20 41 0 25 -4 36 -15
36 -11 0 -15 11 -15 40 0 33 -3 40 -20 40 -13 0 -20 7 -20 20 0 13 -7 20 -20
20 -31 0 -27 62 5 95 14 14 30 25 34 25 5 0 11 9 14 20 3 11 12 20 21 20 13 0
16 13 16 75 0 60 -3 75 -15 75 -11 0 -15 -11 -15 -40 0 -36 -3 -40 -24 -40
-13 0 -31 3 -40 6 -23 9 -20 34 4 34 13 0 20 7 20 20 0 11 7 20 15 20 9 0 15
9 15 25 0 16 -6 25 -15 25 -9 0 -15 9 -15 25 0 16 -6 25 -15 25 -9 0 -15 -9
-15 -24 0 -14 -5 -28 -10 -31 -6 -4 -8 -21 -4 -41 l6 -34 -76 0 c-58 0 -76 3
-76 14 0 8 7 17 16 20 13 5 8 14 -25 46 -23 22 -41 47 -41 55 0 8 -7 15 -16
15 -9 0 -18 9 -21 19 -3 11 -13 21 -24 24 -28 8 -27 77 1 77 13 0 20 7 20 20
0 11 -7 20 -15 20 -8 0 -15 9 -15 20 0 11 7 20 15 20 8 0 15 7 15 15 0 10 -11
15 -35 15 -28 0 -35 -4 -35 -20 0 -11 -7 -20 -15 -20 -8 0 -15 -7 -15 -16 0
-8 7 -22 15 -30 10 -11 15 -36 15 -80 0 -58 -2 -64 -20 -64 -11 0 -23 -7 -26
-15 -4 -8 -12 -15 -20 -15 -8 0 -14 -9 -14 -20 0 -13 -7 -20 -20 -20 -13 0
-20 -7 -20 -19 0 -22 -26 -31 -91 -31 -73 0 -110 10 -107 29 3 13 21 17 101
21 137 7 129 24 -14 28 -110 2 -117 1 -122 -18 -6 -25 -37 -16 -37 11 0 12 -7
19 -19 19 -14 0 -21 10 -25 35 -4 19 -13 35 -20 35 -9 0 -16 22 -20 70 -8 74
-4 90 20 90 9 0 14 11 14 35 0 24 -5 35 -15 35 -8 0 -15 9 -15 20 0 13 -7 20
-20 20 -13 0 -20 -7 -20 -20z m-470 -310 c0 -13 7 -20 20 -20 13 0 20 -7 20
-20 0 -13 7 -20 20 -20 13 0 20 -7 20 -20 0 -22 -35 -28 -43 -7 -3 6 -6 -1 -6
-16 -1 -19 -8 -30 -23 -36 -28 -11 -51 5 -45 31 4 13 0 18 -14 18 -10 0 -19 6
-19 13 0 6 -3 22 -6 35 -5 18 -2 22 15 22 14 0 21 6 21 20 0 13 7 20 20 20 13
0 20 -7 20 -20z m510 0 c0 -13 7 -20 20 -20 13 0 20 -7 20 -20 0 -13 7 -20 20
-20 13 0 20 -6 19 -17 -1 -22 -17 -63 -18 -45 -1 6 -8 12 -17 12 -9 0 -14 -6
-11 -13 7 -18 -11 -45 -20 -32 -5 6 -26 11 -47 12 -45 3 -47 4 -49 32 -1 13
-8 21 -19 21 -10 0 -18 7 -18 15 0 8 9 15 20 15 13 0 20 7 20 20 0 13 7 20 20
20 13 0 20 7 20 20 0 13 7 20 20 20 13 0 20 -7 20 -20z m510 0 c0 -13 7 -20
20 -20 21 0 28 -24 10 -35 -5 -3 -10 -22 -10 -41 0 -31 -2 -34 -30 -34 -23 0
-30 4 -30 20 0 13 -7 20 -20 20 -16 0 -20 7 -20 35 0 28 4 35 20 35 13 0 20 7
20 20 0 13 7 20 20 20 13 0 20 -7 20 -20z m-701 -56 c33 -7 43 -32 14 -34 -10
-1 -54 -2 -98 -3 -76 -2 -80 -1 -83 21 -3 21 0 22 66 22 38 0 84 -3 101 -6z
m779 -21 c-2 -10 -13 -19 -26 -21 -17 -3 -22 2 -22 17 0 16 6 21 26 21 19 0
25 -5 22 -17z m-1372 -45 c-3 -13 -6 -29 -6 -36 0 -9 -10 -12 -27 -10 -28 3
-45 28 -19 28 9 0 16 8 16 20 0 14 7 20 21 20 17 0 20 -4 15 -22z m629 -27 c3
-12 19 -21 40 -25 21 -4 35 -13 35 -21 0 -8 9 -15 20 -15 13 0 20 -7 20 -20 0
-13 7 -20 20 -20 13 0 20 7 20 20 0 13 7 20 20 20 13 0 20 7 20 20 0 16 7 20
34 20 25 0 35 5 39 20 5 19 14 20 141 20 129 0 136 -1 136 -20 0 -13 7 -20 20
-20 13 0 20 -7 20 -20 0 -13 7 -20 20 -20 13 0 20 -7 20 -20 0 -13 7 -20 20
-20 13 0 20 7 20 20 0 13 7 20 19 20 10 0 21 9 24 20 5 18 14 20 96 20 l91 0
0 -40 c0 -29 4 -40 15 -40 8 0 15 -4 15 -9 0 -5 3 -22 6 -38 5 -25 2 -31 -15
-36 -16 -4 -21 -13 -21 -36 l0 -31 -760 0 -760 0 0 89 c0 80 2 89 20 94 12 3
20 14 20 26 0 19 6 21 76 21 66 0 77 -2 81 -19 3 -11 13 -21 24 -24 10 -3 19
-12 19 -21 0 -9 7 -16 15 -16 8 0 15 7 15 15 0 9 11 20 25 25 14 5 25 16 25
25 0 11 10 15 35 15 28 0 35 4 35 20 0 19 7 20 114 20 104 0 115 -2 121 -19z
m-5 -561 c0 -43 3 -50 20 -50 17 0 20 -7 20 -40 0 -33 3 -40 20 -40 16 0 20
-7 20 -36 0 -27 5 -37 20 -41 11 -3 20 -14 20 -24 0 -12 7 -19 20 -19 11 0 20
-7 20 -15 0 -12 19 -15 115 -15 108 0 115 -1 115 -20 0 -19 7 -20 129 -20 114
0 131 -2 143 -18 7 -10 21 -21 31 -25 9 -3 17 -13 17 -22 0 -10 10 -15 34 -15
l33 0 7 -61 c3 -34 6 -97 6 -140 0 -62 3 -79 14 -79 10 0 16 14 18 42 2 30 8
44 20 46 19 4 24 -15 19 -75 -2 -34 -7 -43 -22 -43 -12 0 -19 -7 -19 -20 0
-13 -7 -20 -20 -20 -13 0 -20 -7 -20 -19 0 -10 -9 -21 -20 -24 -15 -4 -20 -14
-20 -41 0 -24 -5 -36 -14 -36 -9 0 -17 -15 -21 -40 -4 -25 -12 -40 -21 -40 -8
0 -14 -7 -14 -16 0 -9 -9 -18 -20 -21 -11 -3 -20 -12 -20 -20 0 -8 -9 -17 -19
-20 -11 -3 -21 -13 -24 -24 -3 -11 -14 -19 -27 -19 -15 0 -20 -5 -17 -14 4
-10 -5 -16 -34 -21 -22 -4 -39 -12 -39 -20 0 -7 -16 -16 -35 -19 -19 -4 -35
-13 -35 -20 0 -8 -11 -17 -25 -20 -14 -4 -25 -13 -25 -21 0 -13 -23 -15 -140
-15 -118 0 -140 2 -140 15 0 10 -10 15 -30 15 -20 0 -33 6 -37 18 -9 23 -23
32 -55 32 -18 0 -28 5 -28 15 0 8 -14 17 -35 21 -20 3 -35 12 -35 20 0 8 -9
14 -20 14 -13 0 -20 7 -20 20 0 13 -7 20 -20 20 -13 0 -20 7 -20 20 0 13 -7
20 -20 20 -13 0 -20 7 -20 20 0 13 -7 20 -20 20 -17 0 -20 7 -20 40 0 28 -4
40 -14 40 -16 0 -26 21 -26 56 0 17 -6 24 -20 24 -13 0 -20 7 -20 20 0 11 -7
20 -15 20 -8 0 -15 9 -15 20 0 13 -7 20 -19 20 -23 0 -31 19 -31 71 0 32 4 39
19 39 16 0 20 -8 23 -37 2 -26 8 -38 18 -38 10 0 16 12 18 38 2 28 0 37 -12
37 -13 0 -16 16 -16 100 0 78 3 100 14 100 7 0 16 9 19 20 3 12 14 20 26 20
14 0 19 5 15 15 -5 11 1 15 19 15 36 0 57 10 57 26 0 8 7 14 15 14 8 0 15 -7
15 -15 0 -12 16 -15 85 -15 66 0 85 3 85 14 0 20 -23 26 -96 26 -50 0 -64 3
-64 15 0 8 9 15 20 15 13 0 20 7 20 19 0 10 9 21 20 24 15 4 20 14 20 41 0 29
4 36 20 36 17 0 20 7 20 40 0 28 4 40 14 40 10 0 16 13 18 38 2 30 7 38 26 40
12 2 22 8 22 13 0 5 7 9 15 9 11 0 15 -12 15 -50z m500 -265 c0 -15 -46 -32
-57 -21 -20 20 -9 36 23 36 23 0 34 -5 34 -15z m-1280 -1565 c0 -17 7 -20 40
-20 33 0 40 -3 40 -20 0 -13 7 -20 20 -20 11 0 20 -7 20 -15 0 -8 -7 -15 -16
-15 -9 0 -18 -9 -21 -20 -5 -17 -14 -20 -64 -20 l-59 0 0 53 c0 28 3 62 6 75
8 27 34 29 34 2z"/>
<path d="M1831 2564 c0 -11 3 -14 6 -6 3 7 2 16 -1 19 -3 4 -6 -2 -5 -13z"/>
<path d="M1610 2410 c0 -13 -7 -20 -20 -20 -13 0 -20 -7 -20 -20 0 -13 7 -20
20 -20 13 0 20 7 20 20 0 17 7 20 40 20 l40 0 0 -60 c0 -47 3 -60 15 -60 8 0
15 -7 15 -15 0 -11 11 -15 40 -15 28 0 40 4 40 14 0 8 9 18 20 21 11 3 20 12
20 20 0 7 -9 15 -20 18 -11 3 -20 12 -20 21 0 9 -7 16 -15 16 -8 0 -15 9 -15
19 0 16 8 20 37 23 27 2 39 8 41 21 3 15 -8 17 -117 17 -114 0 -121 -1 -121
-20z"/>
<path d="M2277 2424 c-9 -10 4 -34 19 -34 10 0 14 -15 14 -56 0 -47 3 -57 20
-61 11 -3 20 -12 20 -19 0 -10 13 -14 40 -14 27 0 40 4 40 14 0 7 9 16 20 19
11 3 20 12 20 21 0 9 -8 16 -20 16 -13 0 -20 7 -20 20 0 13 -7 20 -20 20 -13
0 -20 7 -20 20 0 18 7 20 60 20 53 0 60 -2 60 -20 0 -13 7 -20 20 -20 13 0 20
7 20 20 0 13 -7 20 -20 20 -13 0 -20 7 -20 20 0 19 -7 20 -113 20 -63 0 -116
-3 -120 -6z"/>
<path d="M1850 2364 c0 -9 5 -14 12 -12 18 6 21 28 4 28 -9 0 -16 -7 -16 -16z"/>
<path d="M2005 2029 c-10 -15 1 -23 20 -15 9 3 13 10 10 16 -8 13 -22 13 -30
-1z"/>
<path d="M1930 1905 c0 -8 7 -15 15 -15 8 0 15 7 15 15 0 8 -7 15 -15 15 -8 0
-15 -7 -15 -15z"/>
<path d="M2200 1905 c0 -8 7 -15 15 -15 8 0 15 7 15 15 0 8 -7 15 -15 15 -8 0
-15 -7 -15 -15z"/>
<path d="M2590 3775 c0 -8 7 -15 15 -15 8 0 15 7 15 15 0 8 -7 15 -15 15 -8 0
-15 -7 -15 -15z"/>
<path d="M2860 3736 c0 -8 -9 -18 -20 -21 -14 -5 -20 -15 -20 -37 0 -21 6 -31
20 -35 11 -3 20 -14 20 -24 0 -11 7 -19 15 -19 9 0 15 9 15 21 0 12 8 23 20
26 28 7 26 52 -4 81 -27 25 -46 29 -46 8z m40 -36 c0 -13 -7 -20 -20 -20 -13
0 -20 7 -20 20 0 13 7 20 20 20 13 0 20 -7 20 -20z"/>
<path d="M2287 1483 c-13 -12 -7 -33 8 -33 8 0 15 9 15 20 0 20 -11 26 -23 13z"/>
<path d="M1850 1435 c0 -8 7 -15 15 -15 8 0 15 7 15 15 0 8 -7 15 -15 15 -8 0
-15 -7 -15 -15z"/>
<path d="M2240 1415 c0 -24 5 -35 15 -35 10 0 15 11 15 35 0 24 -5 35 -15 35
-10 0 -15 -11 -15 -35z"/>
<path d="M1880 1396 c0 -8 9 -17 20 -21 12 -4 22 -19 26 -41 8 -46 34 -46 34
1 0 28 -4 35 -20 35 -13 0 -20 7 -20 20 0 13 -7 20 -20 20 -11 0 -20 -6 -20
-14z"/>
<path d="M2196 1335 c-4 -21 -13 -35 -21 -35 -8 0 -15 -9 -15 -20 0 -11 7 -20
15 -20 8 0 15 9 15 20 0 13 7 20 20 20 16 0 20 7 20 35 0 23 -5 35 -14 35 -8
0 -17 -15 -20 -35z"/>
<path d="M1970 1275 c0 -8 7 -15 15 -15 8 0 15 7 15 15 0 8 -7 15 -15 15 -8 0
-15 -7 -15 -15z"/>
<path d="M2000 1235 c0 -8 8 -15 18 -15 10 0 19 7 19 15 0 8 -9 15 -19 15 -10
0 -18 -7 -18 -15z"/>
<path d="M2120 1235 c0 -8 7 -15 15 -15 8 0 15 7 15 15 0 8 -7 15 -15 15 -8 0
-15 -7 -15 -15z"/>
<path d="M2045 1210 c-8 -14 3 -30 21 -30 8 0 14 -9 14 -20 0 -32 27 -23 34
11 3 17 3 35 0 40 -7 12 -61 11 -69 -1z"/>
<path d="M3100 1173 c0 -18 5 -33 10 -33 13 0 13 30 0 50 -7 11 -10 7 -10 -17z"/>
<path d="M3141 1091 c-1 -27 2 -32 11 -23 8 8 8 17 0 34 -10 22 -11 21 -11
-11z"/>
<path d="M1890 1085 c0 -8 7 -15 15 -15 8 0 15 7 15 15 0 8 -7 15 -15 15 -8 0
-15 -7 -15 -15z"/>
<path d="M3183 1005 c0 -8 4 -15 9 -15 4 0 8 7 8 15 0 8 -4 15 -8 15 -5 0 -9
-7 -9 -15z"/>
<path d="M1960 1000 c0 -5 9 -10 20 -10 11 0 20 5 20 10 0 6 -9 10 -20 10 -11
0 -20 -4 -20 -10z"/>
<path d="M3220 920 c0 -5 5 -10 10 -10 6 0 10 5 10 10 0 6 -4 10 -10 10 -5 0
-10 -4 -10 -10z"/>
<path d="M3250 850 c0 -11 7 -20 15 -20 8 0 15 9 15 20 0 11 -7 20 -15 20 -8
0 -15 -9 -15 -20z"/>
<path d="M813 730 c0 -30 2 -43 4 -27 2 15 2 39 0 55 -2 15 -4 2 -4 -28z"/>
<path d="M3300 720 c-6 -65 -5 -78 6 -68 3 3 4 34 2 69 l-3 64 -5 -65z"/>
<path d="M1780 680 c-13 -8 -12 -10 3 -10 9 0 17 5 17 10 0 12 -1 12 -20 0z"/>
<path d="M1737 663 c-14 -13 -7 -63 8 -63 10 0 15 11 15 35 0 33 -8 43 -23 28z"/>
<path d="M880 581 c0 -6 5 -13 10 -16 6 -3 10 1 10 9 0 9 -4 16 -10 16 -5 0
-10 -4 -10 -9z"/>
<path d="M1970 566 c0 -36 15 -40 18 -5 1 16 -2 29 -8 29 -5 0 -10 -11 -10
-24z"/>
<path d="M938 538 c16 -8 28 -8 45 0 19 9 17 11 -23 11 -40 0 -42 -2 -22 -11z"/>
<path d="M1003 523 c-10 -3 -13 -66 -13 -264 0 -224 2 -259 15 -259 13 0 15
36 15 265 0 146 -1 265 -2 264 -2 0 -9 -3 -15 -6z"/>
<path d="M3058 517 c-2 -7 -2 -126 0 -264 3 -208 7 -253 18 -253 21 0 21 515
0 523 -8 3 -16 0 -18 -6z"/>
<path d="M1660 475 c0 -19 5 -35 10 -35 6 0 10 16 10 35 0 19 -4 35 -10 35 -5
0 -10 -16 -10 -35z"/>
<path d="M1591 304 c0 -11 3 -14 6 -6 3 7 2 16 -1 19 -3 4 -6 -2 -5 -13z"/>
<path d="M2705 280 c-4 -25 -12 -40 -21 -40 -8 0 -14 -7 -14 -15 0 -8 7 -15
15 -15 12 0 15 -13 15 -60 l0 -60 -35 0 c-28 0 -35 -4 -35 -20 0 -16 7 -20 35
-20 28 0 35 4 35 20 0 13 7 20 20 20 19 0 20 7 20 115 0 92 -3 115 -14 115 -9
0 -17 -15 -21 -40z"/>
<path d="M1378 223 c-2 -44 -7 -58 -18 -58 -11 0 -16 -14 -18 -56 -3 -50 0
-57 18 -62 11 -3 20 -12 20 -20 0 -17 29 -27 78 -27 21 0 32 5 32 14 0 8 6 17
13 20 10 5 10 7 0 12 -8 3 -13 26 -13 60 l0 54 61 0 c52 0 60 -2 57 -17 -2
-13 -13 -18 -38 -18 l-35 0 -3 -60 -3 -60 111 -2 c106 -2 110 -2 110 18 0 18
3 19 15 9 8 -7 23 -9 32 -6 12 5 14 9 6 14 -18 11 -5 49 18 55 11 3 19 9 18
14 -1 4 -1 18 0 31 l1 22 415 0 c408 0 415 0 415 20 0 20 -7 20 -449 20 -390
0 -450 -2 -455 -15 -7 -18 -36 -20 -36 -2 0 9 -2 9 -8 -1 -5 -7 -25 -15 -45
-19 -33 -5 -37 -3 -37 16 0 14 -6 21 -20 21 -11 0 -28 9 -37 20 -12 13 -30 20
-55 20 -31 0 -38 -4 -38 -20 0 -13 -7 -20 -20 -20 -11 0 -20 -7 -20 -15 0 -9
-9 -15 -21 -15 -18 0 -20 4 -16 28 7 37 -3 82 -19 82 -9 0 -14 -18 -16 -57z
m60 -103 c8 0 12 -18 12 -55 0 -42 -3 -55 -15 -55 -8 0 -15 7 -15 16 0 9 -9
18 -20 21 -16 4 -20 14 -20 45 0 37 2 40 23 34 12 -3 28 -6 35 -6z m212 -40
c0 -22 -5 -40 -11 -40 -5 0 -7 -4 -4 -10 3 -5 2 -10 -4 -10 -5 0 -14 6 -18 13
-4 6 -15 12 -23 12 -8 0 -16 8 -18 18 -2 12 3 17 18 17 13 0 24 8 27 20 10 37
33 23 33 -20z"/>
<path d="M2583 31 c-3 -13 -16 -21 -37 -24 -17 -2 -9 -3 18 -1 47 3 71 18 60
36 -10 15 -36 8 -41 -11z"/>
</g>
</svg>
